# xmcd
#
# Track frame offsets: 
#        150
#        14463
#        34018
#        48013
#        64790
#        82115
#        102106
#        124786
#        149085
#        162063
#        171336
#        186962
#        201234
#        218644
#
# Disc length: 3039 seconds
#
# Revision: 0
# Processed by: cddbd v1.5.2PL0 Copyright (c) Steve Scherf et al.
# Submitted via: ExactAudioCopy v1.3
#
DISCID=c50bdd0e
DTITLE=Andy Just - Electric Roots
DYEAR=2011
DGENRE=Blues
TTITLE0=Let Yourself Go
TTITLE1=Dirty Mother Fuyer
TTITLE2=Weel, That's Alright
TTITLE3=How Much More
TTITLE4=Chicken
TTITLE5=Down The Line
TTITLE6=It's Hard Being A Man
TTITLE7=Bring It On Home
TTITLE8=You Drink Too Much
TTITLE9=Basement Stomp
TTITLE10=Nothing But The Devil
TTITLE11=Naggin' Me
TTITLE12=Layin' Sick Bed Blues
TTITLE13=Bamboogie
EXTD=
EXTT0=
EXTT1=
EXTT2=
EXTT3=
EXTT4=
EXTT5=
EXTT6=
EXTT7=
EXTT8=
EXTT9=
EXTT10=
EXTT11=
EXTT12=
EXTT13=
PLAYORDER=
